mtllib danchou_cone.mtl
o Corn
v 0.358579 0.000000 0.358579
v 0.641421 0.000000 0.358579
v 0.641421 0.000000 0.641421
v 0.358579 0.000000 0.641421
v 0.500000 0.500000 0.500000
vt 0.250000 0.490000
vt 0.250000 0.250000
vt 0.490000 0.250000
vt 0.746696 0.435775
vt 0.498543 0.997852
vt 0.264435 0.433490
vt 0.750000 0.490000
vt 0.990000 0.250000
vt 0.750000 0.010000
vt 0.510000 0.250000
vt 0.250000 0.010000
vt 0.010000 0.250000
vn 0.0000 0.2722 -0.9623
vn 0.9623 0.2722 0.0000
vn 0.0000 -1.0000 0.0000
vn 0.0000 0.2722 0.9623
vn -0.9623 0.2722 0.0000
usemtl Texture
s off
f 1/1/1 5/2/1 2/3/1
f 2/4/2 5/5/2 3/6/2
f 1/7/3 2/8/3 3/9/3 4/10/3
f 3/11/4 5/2/4 4/12/4
f 4/12/5 5/2/5 1/1/5
