# Blender v2.93.1 OBJ File: 'untitled.blend'
# www.blender.org
mtllib inferior_wizard_wand.mtl
o 五角星_柱体.001
v 0.000000 -0.025000 -0.072654
v 0.000000 0.025000 -0.072654
v 0.100000 -0.025000 0.000000
v 0.100000 0.025000 0.000000
v -0.000000 -0.025000 0.072654
v -0.000000 0.025000 0.072654
v -0.100000 -0.025000 -0.000000
v -0.100000 0.025000 -0.000000
v 0.138197 -0.025000 -0.117557
v 0.138197 0.025000 -0.117557
v 0.100000 -0.025000 0.000000
v 0.100000 0.025000 0.000000
v -0.000000 -0.025000 -0.072654
v -0.000000 0.025000 -0.072654
v 0.038197 -0.025000 -0.190211
v 0.038197 0.025000 -0.190211
v 0.223607 -0.025000 -0.000000
v 0.223607 0.025000 -0.000000
v 0.100000 -0.025000 0.000000
v 0.100000 0.025000 0.000000
v 0.138197 -0.025000 -0.117557
v 0.138197 0.025000 -0.117557
v 0.261803 -0.025000 -0.117557
v 0.261803 0.025000 -0.117557
v 0.138197 -0.025000 0.117557
v 0.138197 0.025000 0.117557
v 0.100000 -0.025000 0.000000
v 0.100000 0.025000 0.000000
v 0.223607 -0.025000 0.000000
v 0.223607 0.025000 0.000000
v 0.261803 -0.025000 0.117557
v 0.261803 0.025000 0.117557
v 0.000000 -0.025000 0.072654
v 0.000000 0.025000 0.072654
v 0.100000 -0.025000 0.000000
v 0.100000 0.025000 0.000000
v 0.138197 -0.025000 0.117557
v 0.138197 0.025000 0.117557
v 0.038197 -0.025000 0.190211
v 0.038197 0.025000 0.190211
vt 1.000000 0.500000
vt 1.000000 1.000000
vt 0.750000 1.000000
vt 0.750000 0.500000
vt 0.500000 1.000000
vt 0.500000 0.500000
vt 0.490000 0.250000
vt 0.250000 0.490000
vt 0.010000 0.250000
vt 0.250000 0.010000
vt 0.250000 1.000000
vt 0.250000 0.500000
vt 0.000000 1.000000
vt 0.000000 0.500000
vt 0.750000 0.490000
vt 0.990000 0.250000
vt 0.750000 0.010000
vt 0.510000 0.250000
vt 1.000000 0.500000
vt 1.000000 1.000000
vt 0.750000 1.000000
vt 0.750000 0.500000
vt 0.500000 1.000000
vt 0.500000 0.500000
vt 0.490000 0.250000
vt 0.250000 0.490000
vt 0.010000 0.250000
vt 0.250000 0.010000
vt 0.250000 1.000000
vt 0.250000 0.500000
vt 0.000000 1.000000
vt 0.000000 0.500000
vt 0.750000 0.490000
vt 0.990000 0.250000
vt 0.750000 0.010000
vt 0.510000 0.250000
vt 1.000000 0.500000
vt 1.000000 1.000000
vt 0.750000 1.000000
vt 0.750000 0.500000
vt 0.500000 1.000000
vt 0.500000 0.500000
vt 0.490000 0.250000
vt 0.250000 0.490000
vt 0.010000 0.250000
vt 0.250000 0.010000
vt 0.250000 1.000000
vt 0.250000 0.500000
vt 0.000000 1.000000
vt 0.000000 0.500000
vt 0.750000 0.490000
vt 0.990000 0.250000
vt 0.750000 0.010000
vt 0.510000 0.250000
vt 1.000000 0.500000
vt 1.000000 1.000000
vt 0.750000 1.000000
vt 0.750000 0.500000
vt 0.500000 1.000000
vt 0.500000 0.500000
vt 0.490000 0.250000
vt 0.250000 0.490000
vt 0.010000 0.250000
vt 0.250000 0.010000
vt 0.250000 1.000000
vt 0.250000 0.500000
vt 0.000000 1.000000
vt 0.000000 0.500000
vt 0.750000 0.490000
vt 0.990000 0.250000
vt 0.750000 0.010000
vt 0.510000 0.250000
vt 1.000000 0.500000
vt 1.000000 1.000000
vt 0.750000 1.000000
vt 0.750000 0.500000
vt 0.500000 1.000000
vt 0.500000 0.500000
vt 0.490000 0.250000
vt 0.250000 0.490000
vt 0.010000 0.250000
vt 0.250000 0.010000
vt 0.250000 1.000000
vt 0.250000 0.500000
vt 0.000000 1.000000
vt 0.000000 0.500000
vt 0.750000 0.490000
vt 0.990000 0.250000
vt 0.750000 0.010000
vt 0.510000 0.250000
vn 0.5878 0.0000 -0.8090
vn 0.5878 0.0000 0.8090
vn 0.0000 1.0000 0.0000
vn -0.5878 0.0000 0.8090
vn -0.5878 0.0000 -0.8090
vn 0.0000 -1.0000 0.0000
vn 0.9511 0.0000 0.3090
vn -0.9511 0.0000 -0.3090
vn 0.0000 0.0000 1.0000
vn -0.0000 0.0000 -1.0000
vn -0.9511 0.0000 0.3090
vn 0.9511 0.0000 -0.3090
usemtl 五角星材质
s off
f 1/1/1 2/2/1 4/3/1 3/4/1
f 3/4/2 4/3/2 6/5/2 5/6/2
f 4/7/3 2/8/3 8/9/3 6/10/3
f 5/6/4 6/5/4 8/11/4 7/12/4
f 7/12/5 8/11/5 2/13/5 1/14/5
f 1/15/6 3/16/6 5/17/6 7/18/6
f 9/19/7 10/20/7 12/21/7 11/22/7
f 11/22/4 12/21/4 14/23/4 13/24/4
f 12/25/3 10/26/3 16/27/3 14/28/3
f 13/24/8 14/23/8 16/29/8 15/30/8
f 15/30/1 16/29/1 10/31/1 9/32/1
f 9/33/6 11/34/6 13/35/6 15/36/6
f 17/37/9 18/38/9 20/39/9 19/40/9
f 19/40/8 20/39/8 22/41/8 21/42/8
f 20/43/3 18/44/3 24/45/3 22/46/3
f 21/42/10 22/41/10 24/47/10 23/48/10
f 23/48/7 24/47/7 18/49/7 17/50/7
f 17/51/6 19/52/6 21/53/6 23/54/6
f 25/55/11 26/56/11 28/57/11 27/58/11
f 27/58/10 28/57/10 30/59/10 29/60/10
f 28/61/3 26/62/3 32/63/3 30/64/3
f 29/60/12 30/59/12 32/65/12 31/66/12
f 31/66/9 32/65/9 26/67/9 25/68/9
f 25/69/6 27/70/6 29/71/6 31/72/6
f 33/73/5 34/74/5 36/75/5 35/76/5
f 35/76/12 36/75/12 38/77/12 37/78/12
f 36/79/3 34/80/3 40/81/3 38/82/3
f 37/78/2 38/77/2 40/83/2 39/84/2
f 39/84/11 40/83/11 34/85/11 33/86/11
f 33/87/6 35/88/6 37/89/6 39/90/6
o 杆_柱体.008
v 0.100000 -0.000000 -0.012000
v 1.832000 0.000000 -0.012000
v 0.100000 -0.002341 -0.011769
v 1.832000 -0.002341 -0.011769
v 0.100000 -0.004592 -0.011087
v 1.832000 -0.004592 -0.011087
v 0.100000 -0.006667 -0.009978
v 1.832000 -0.006667 -0.009978
v 0.100000 -0.008485 -0.008485
v 1.832000 -0.008485 -0.008485
v 0.100000 -0.009978 -0.006667
v 1.832000 -0.009978 -0.006667
v 0.100000 -0.011087 -0.004592
v 1.832000 -0.011086 -0.004592
v 0.100000 -0.011769 -0.002341
v 1.832000 -0.011769 -0.002341
v 0.100000 -0.012000 0.000000
v 1.832000 -0.012000 0.000000
v 0.100000 -0.011769 0.002341
v 1.832000 -0.011769 0.002341
v 0.100000 -0.011087 0.004592
v 1.832000 -0.011086 0.004592
v 0.100000 -0.009978 0.006667
v 1.832000 -0.009978 0.006667
v 0.100000 -0.008485 0.008485
v 1.832000 -0.008485 0.008485
v 0.100000 -0.006667 0.009978
v 1.832000 -0.006667 0.009978
v 0.100000 -0.004592 0.011087
v 1.832000 -0.004592 0.011087
v 0.100000 -0.002341 0.011769
v 1.832000 -0.002341 0.011769
v 0.100000 -0.000000 0.012000
v 1.832000 0.000000 0.012000
v 0.100000 0.002341 0.011769
v 1.832000 0.002341 0.011769
v 0.100000 0.004592 0.011087
v 1.832000 0.004592 0.011087
v 0.100000 0.006667 0.009978
v 1.832000 0.006667 0.009978
v 0.100000 0.008485 0.008485
v 1.832000 0.008485 0.008485
v 0.100000 0.009978 0.006667
v 1.832000 0.009978 0.006667
v 0.100000 0.011086 0.004592
v 1.832000 0.011087 0.004592
v 0.100000 0.011769 0.002341
v 1.832000 0.011769 0.002341
v 0.100000 0.012000 0.000000
v 1.832000 0.012000 0.000000
v 0.100000 0.011769 -0.002341
v 1.832000 0.011769 -0.002341
v 0.100000 0.011086 -0.004592
v 1.832000 0.011087 -0.004592
v 0.100000 0.009978 -0.006667
v 1.832000 0.009978 -0.006667
v 0.100000 0.008485 -0.008485
v 1.832000 0.008485 -0.008485
v 0.100000 0.006667 -0.009978
v 1.832000 0.006667 -0.009978
v 0.100000 0.004592 -0.011087
v 1.832000 0.004592 -0.011087
v 0.100000 0.002341 -0.011769
v 1.832000 0.002341 -0.011769
vt 1.000000 0.500000
vt 1.000000 1.000000
vt 0.968750 1.000000
vt 0.968750 0.500000
vt 0.937500 1.000000
vt 0.937500 0.500000
vt 0.906250 1.000000
vt 0.906250 0.500000
vt 0.875000 1.000000
vt 0.875000 0.500000
vt 0.843750 1.000000
vt 0.843750 0.500000
vt 0.812500 1.000000
vt 0.812500 0.500000
vt 0.781250 1.000000
vt 0.781250 0.500000
vt 0.750000 1.000000
vt 0.750000 0.500000
vt 0.718750 1.000000
vt 0.718750 0.500000
vt 0.687500 1.000000
vt 0.687500 0.500000
vt 0.656250 1.000000
vt 0.656250 0.500000
vt 0.625000 1.000000
vt 0.625000 0.500000
vt 0.593750 1.000000
vt 0.593750 0.500000
vt 0.562500 1.000000
vt 0.562500 0.500000
vt 0.531250 1.000000
vt 0.531250 0.500000
vt 0.500000 1.000000
vt 0.500000 0.500000
vt 0.468750 1.000000
vt 0.468750 0.500000
vt 0.437500 1.000000
vt 0.437500 0.500000
vt 0.406250 1.000000
vt 0.406250 0.500000
vt 0.375000 1.000000
vt 0.375000 0.500000
vt 0.343750 1.000000
vt 0.343750 0.500000
vt 0.312500 1.000000
vt 0.312500 0.500000
vt 0.281250 1.000000
vt 0.281250 0.500000
vt 0.250000 1.000000
vt 0.250000 0.500000
vt 0.218750 1.000000
vt 0.218750 0.500000
vt 0.187500 1.000000
vt 0.187500 0.500000
vt 0.156250 1.000000
vt 0.156250 0.500000
vt 0.125000 1.000000
vt 0.125000 0.500000
vt 0.093750 1.000000
vt 0.093750 0.500000
vt 0.062500 1.000000
vt 0.062500 0.500000
vt 0.296822 0.485388
vt 0.250000 0.490000
vt 0.203178 0.485388
vt 0.158156 0.471731
vt 0.116663 0.449553
vt 0.080294 0.419706
vt 0.050447 0.383337
vt 0.028269 0.341844
vt 0.014612 0.296822
vt 0.010000 0.250000
vt 0.014612 0.203178
vt 0.028269 0.158156
vt 0.050447 0.116663
vt 0.080294 0.080294
vt 0.116663 0.050447
vt 0.158156 0.028269
vt 0.203178 0.014612
vt 0.250000 0.010000
vt 0.296822 0.014612
vt 0.341844 0.028269
vt 0.383337 0.050447
vt 0.419706 0.080294
vt 0.449553 0.116663
vt 0.471731 0.158156
vt 0.485388 0.203178
vt 0.490000 0.250000
vt 0.485388 0.296822
vt 0.471731 0.341844
vt 0.449553 0.383337
vt 0.419706 0.419706
vt 0.383337 0.449553
vt 0.341844 0.471731
vt 0.031250 1.000000
vt 0.031250 0.500000
vt 0.000000 1.000000
vt 0.000000 0.500000
vt 0.750000 0.490000
vt 0.796822 0.485388
vt 0.841844 0.471731
vt 0.883337 0.449553
vt 0.919706 0.419706
vt 0.949553 0.383337
vt 0.971731 0.341844
vt 0.985388 0.296822
vt 0.990000 0.250000
vt 0.985388 0.203178
vt 0.971731 0.158156
vt 0.949553 0.116663
vt 0.919706 0.080294
vt 0.883337 0.050447
vt 0.841844 0.028269
vt 0.796822 0.014612
vt 0.750000 0.010000
vt 0.703178 0.014612
vt 0.658156 0.028269
vt 0.616663 0.050447
vt 0.580294 0.080294
vt 0.550447 0.116663
vt 0.528269 0.158156
vt 0.514612 0.203178
vt 0.510000 0.250000
vt 0.514612 0.296822
vt 0.528269 0.341844
vt 0.550447 0.383337
vt 0.580294 0.419706
vt 0.616663 0.449553
vt 0.658156 0.471731
vt 0.703178 0.485388
vn 0.0000 -0.0980 -0.9952
vn 0.0000 -0.2903 -0.9569
vn 0.0000 -0.4714 -0.8819
vn 0.0000 -0.6344 -0.7730
vn 0.0000 -0.7730 -0.6344
vn 0.0000 -0.8819 -0.4714
vn 0.0000 -0.9569 -0.2903
vn 0.0000 -0.9952 -0.0980
vn 0.0000 -0.9952 0.0980
vn 0.0000 -0.9569 0.2903
vn 0.0000 -0.8819 0.4714
vn 0.0000 -0.7730 0.6344
vn 0.0000 -0.6344 0.7730
vn 0.0000 -0.4714 0.8819
vn 0.0000 -0.2903 0.9569
vn 0.0000 -0.0980 0.9952
vn -0.0000 0.0980 0.9952
vn -0.0000 0.2903 0.9569
vn -0.0000 0.4714 0.8819
vn -0.0000 0.6344 0.7730
vn -0.0000 0.7730 0.6344
vn -0.0000 0.8819 0.4714
vn -0.0000 0.9569 0.2903
vn -0.0000 0.9952 0.0980
vn -0.0000 0.9952 -0.0980
vn -0.0000 0.9569 -0.2903
vn -0.0000 0.8819 -0.4714
vn -0.0000 0.7730 -0.6344
vn -0.0000 0.6344 -0.7730
vn -0.0000 0.4714 -0.8819
vn 1.0000 0.0000 0.0000
vn -0.0000 0.2903 -0.9569
vn -0.0000 0.0980 -0.9952
vn -1.0000 0.0000 0.0000
usemtl 杆材质
s off
f 41/91/13 42/92/13 44/93/13 43/94/13
f 43/94/14 44/93/14 46/95/14 45/96/14
f 45/96/15 46/95/15 48/97/15 47/98/15
f 47/98/16 48/97/16 50/99/16 49/100/16
f 49/100/17 50/99/17 52/101/17 51/102/17
f 51/102/18 52/101/18 54/103/18 53/104/18
f 53/104/19 54/103/19 56/105/19 55/106/19
f 55/106/20 56/105/20 58/107/20 57/108/20
f 57/108/21 58/107/21 60/109/21 59/110/21
f 59/110/22 60/109/22 62/111/22 61/112/22
f 61/112/23 62/111/23 64/113/23 63/114/23
f 63/114/24 64/113/24 66/115/24 65/116/24
f 65/116/25 66/115/25 68/117/25 67/118/25
f 67/118/26 68/117/26 70/119/26 69/120/26
f 69/120/27 70/119/27 72/121/27 71/122/27
f 71/122/28 72/121/28 74/123/28 73/124/28
f 73/124/29 74/123/29 76/125/29 75/126/29
f 75/126/30 76/125/30 78/127/30 77/128/30
f 77/128/31 78/127/31 80/129/31 79/130/31
f 79/130/32 80/129/32 82/131/32 81/132/32
f 81/132/33 82/131/33 84/133/33 83/134/33
f 83/134/34 84/133/34 86/135/34 85/136/34
f 85/136/35 86/135/35 88/137/35 87/138/35
f 87/138/36 88/137/36 90/139/36 89/140/36
f 89/140/37 90/139/37 92/141/37 91/142/37
f 91/142/38 92/141/38 94/143/38 93/144/38
f 93/144/39 94/143/39 96/145/39 95/146/39
f 95/146/40 96/145/40 98/147/40 97/148/40
f 97/148/41 98/147/41 100/149/41 99/150/41
f 99/150/42 100/149/42 102/151/42 101/152/42
f 44/153/43 42/154/43 104/155/43 102/156/43 100/157/43 98/158/43 96/159/43 94/160/43 92/161/43 90/162/43 88/163/43 86/164/43 84/165/43 82/166/43 80/167/43 78/168/43 76/169/43 74/170/43 72/171/43 70/172/43 68/173/43 66/174/43 64/175/43 62/176/43 60/177/43 58/178/43 56/179/43 54/180/43 52/181/43 50/182/43 48/183/43 46/184/43
f 101/152/44 102/151/44 104/185/44 103/186/44
f 103/186/45 104/185/45 42/187/45 41/188/45
f 41/189/46 43/190/46 45/191/46 47/192/46 49/193/46 51/194/46 53/195/46 55/196/46 57/197/46 59/198/46 61/199/46 63/200/46 65/201/46 67/202/46 69/203/46 71/204/46 73/205/46 75/206/46 77/207/46 79/208/46 81/209/46 83/210/46 85/211/46 87/212/46 89/213/46 91/214/46 93/215/46 95/216/46 97/217/46 99/218/46 101/219/46 103/220/46
